# MagicaVoxel @ Ephtracy

# group
g rug black

# material
mtllib rug black.mtl
usemtl palette

# normals
vn -1 0 0
vn 1 0 0
vn 0 0 1
vn 0 0 -1
vn 0 -1 0
vn 0 1 0

# texcoords
vt 0.857422 0.5
vt 0.962891 0.5

# verts
v -12.5 0 3.5
v -12.5 0 -3.5
v -12.5 1 3.5
v -12.5 1 -3.5
v -11.5 0 5.5
v -11.5 0 3.5
v -11.5 0 -3.5
v -11.5 0 -5.5
v -11.5 1 5.5
v -11.5 1 3.5
v -11.5 1 -3.5
v -11.5 1 -5.5
v -10.5 0 7.5
v -10.5 0 5.5
v -10.5 0 -5.5
v -10.5 0 -7.5
v -10.5 1 7.5
v -10.5 1 5.5
v -10.5 1 -5.5
v -10.5 1 -7.5
v -9.5 0 8.5
v -9.5 0 7.5
v -9.5 0 -7.5
v -9.5 0 -8.5
v -9.5 1 8.5
v -9.5 1 7.5
v -9.5 1 -7.5
v -9.5 1 -8.5
v -8.5 0 9.5
v -8.5 0 8.5
v -8.5 0 -8.5
v -8.5 0 -9.5
v -8.5 1 9.5
v -8.5 1 8.5
v -8.5 1 -8.5
v -8.5 1 -9.5
v -7.5 0 10.5
v -7.5 0 9.5
v -7.5 0 -9.5
v -7.5 0 -10.5
v -7.5 1 10.5
v -7.5 1 9.5
v -7.5 1 -9.5
v -7.5 1 -10.5
v -5.5 0 11.5
v -5.5 0 10.5
v -5.5 0 -10.5
v -5.5 0 -11.5
v -5.5 1 11.5
v -5.5 1 10.5
v -5.5 1 -10.5
v -5.5 1 -11.5
v -3.5 0 12.5
v -3.5 0 11.5
v -3.5 0 -11.5
v -3.5 0 -12.5
v -3.5 1 12.5
v -3.5 1 11.5
v -3.5 1 -11.5
v -3.5 1 -12.5
v 3.5 0 12.5
v 3.5 0 11.5
v 3.5 0 -11.5
v 3.5 0 -12.5
v 3.5 1 12.5
v 3.5 1 11.5
v 3.5 1 -11.5
v 3.5 1 -12.5
v 5.5 0 11.5
v 5.5 0 10.5
v 5.5 0 -10.5
v 5.5 0 -11.5
v 5.5 1 11.5
v 5.5 1 10.5
v 5.5 1 -10.5
v 5.5 1 -11.5
v 7.5 0 10.5
v 7.5 0 9.5
v 7.5 0 -9.5
v 7.5 0 -10.5
v 7.5 1 10.5
v 7.5 1 9.5
v 7.5 1 -9.5
v 7.5 1 -10.5
v 8.5 0 9.5
v 8.5 0 8.5
v 8.5 0 -8.5
v 8.5 0 -9.5
v 8.5 1 9.5
v 8.5 1 8.5
v 8.5 1 -8.5
v 8.5 1 -9.5
v 9.5 0 8.5
v 9.5 0 7.5
v 9.5 0 -7.5
v 9.5 0 -8.5
v 9.5 1 8.5
v 9.5 1 7.5
v 9.5 1 -7.5
v 9.5 1 -8.5
v 10.5 0 7.5
v 10.5 0 5.5
v 10.5 0 -5.5
v 10.5 0 -7.5
v 10.5 1 7.5
v 10.5 1 5.5
v 10.5 1 -5.5
v 10.5 1 -7.5
v 11.5 0 5.5
v 11.5 0 3.5
v 11.5 0 -3.5
v 11.5 0 -5.5
v 11.5 1 5.5
v 11.5 1 3.5
v 11.5 1 -3.5
v 11.5 1 -5.5
v 12.5 0 3.5
v 12.5 0 -3.5
v 12.5 1 3.5
v 12.5 1 -3.5
v -3.5 0 12.5
v -3.5 1 12.5
v 3.5 0 12.5
v 3.5 1 12.5
v -5.5 0 11.5
v -5.5 1 11.5
v -3.5 0 11.5
v -3.5 1 11.5
v 3.5 0 11.5
v 3.5 1 11.5
v 5.5 0 11.5
v 5.5 1 11.5
v -7.5 0 10.5
v -7.5 1 10.5
v -5.5 0 10.5
v -5.5 1 10.5
v 5.5 0 10.5
v 5.5 1 10.5
v 7.5 0 10.5
v 7.5 1 10.5
v -8.5 0 9.5
v -8.5 1 9.5
v -7.5 0 9.5
v -7.5 1 9.5
v 7.5 0 9.5
v 7.5 1 9.5
v 8.5 0 9.5
v 8.5 1 9.5
v -9.5 0 8.5
v -9.5 1 8.5
v -8.5 0 8.5
v -8.5 1 8.5
v 8.5 0 8.5
v 8.5 1 8.5
v 9.5 0 8.5
v 9.5 1 8.5
v -10.5 0 7.5
v -10.5 1 7.5
v -9.5 0 7.5
v -9.5 1 7.5
v 9.5 0 7.5
v 9.5 1 7.5
v 10.5 0 7.5
v 10.5 1 7.5
v -11.5 0 5.5
v -11.5 1 5.5
v -10.5 0 5.5
v -10.5 1 5.5
v 10.5 0 5.5
v 10.5 1 5.5
v 11.5 0 5.5
v 11.5 1 5.5
v -12.5 0 3.5
v -12.5 1 3.5
v -11.5 0 3.5
v -11.5 1 3.5
v 11.5 0 3.5
v 11.5 1 3.5
v 12.5 0 3.5
v 12.5 1 3.5
v -12.5 0 -3.5
v -12.5 1 -3.5
v -11.5 0 -3.5
v -11.5 1 -3.5
v 11.5 0 -3.5
v 11.5 1 -3.5
v 12.5 0 -3.5
v 12.5 1 -3.5
v -11.5 0 -5.5
v -11.5 1 -5.5
v -10.5 0 -5.5
v -10.5 1 -5.5
v 10.5 0 -5.5
v 10.5 1 -5.5
v 11.5 0 -5.5
v 11.5 1 -5.5
v -10.5 0 -7.5
v -10.5 1 -7.5
v -9.5 0 -7.5
v -9.5 1 -7.5
v 9.5 0 -7.5
v 9.5 1 -7.5
v 10.5 0 -7.5
v 10.5 1 -7.5
v -9.5 0 -8.5
v -9.5 1 -8.5
v -8.5 0 -8.5
v -8.5 1 -8.5
v 8.5 0 -8.5
v 8.5 1 -8.5
v 9.5 0 -8.5
v 9.5 1 -8.5
v -8.5 0 -9.5
v -8.5 1 -9.5
v -7.5 0 -9.5
v -7.5 1 -9.5
v 7.5 0 -9.5
v 7.5 1 -9.5
v 8.5 0 -9.5
v 8.5 1 -9.5
v -7.5 0 -10.5
v -7.5 1 -10.5
v -5.5 0 -10.5
v -5.5 1 -10.5
v 5.5 0 -10.5
v 5.5 1 -10.5
v 7.5 0 -10.5
v 7.5 1 -10.5
v -5.5 0 -11.5
v -5.5 1 -11.5
v -3.5 0 -11.5
v -3.5 1 -11.5
v 3.5 0 -11.5
v 3.5 1 -11.5
v 5.5 0 -11.5
v 5.5 1 -11.5
v -3.5 0 -12.5
v -3.5 1 -12.5
v 3.5 0 -12.5
v 3.5 1 -12.5
v -3.5 0 12.5
v 3.5 0 12.5
v -5.5 0 11.5
v -3.5 0 11.5
v 3.5 0 11.5
v 5.5 0 11.5
v -7.5 0 10.5
v -5.5 0 10.5
v -3.5 0 10.5
v 3.5 0 10.5
v 5.5 0 10.5
v 7.5 0 10.5
v -8.5 0 9.5
v -7.5 0 9.5
v -5.5 0 9.5
v -3.5 0 9.5
v 3.5 0 9.5
v 5.5 0 9.5
v 7.5 0 9.5
v 8.5 0 9.5
v -9.5 0 8.5
v -8.5 0 8.5
v -7.5 0 8.5
v -6.5 0 8.5
v -5.5 0 8.5
v 5.5 0 8.5
v 6.5 0 8.5
v 7.5 0 8.5
v 8.5 0 8.5
v 9.5 0 8.5
v -10.5 0 7.5
v -9.5 0 7.5
v -8.5 0 7.5
v -7.5 0 7.5
v -6.5 0 7.5
v 6.5 0 7.5
v 7.5 0 7.5
v 8.5 0 7.5
v 9.5 0 7.5
v 10.5 0 7.5
v -8.5 0 6.5
v -7.5 0 6.5
v 7.5 0 6.5
v 8.5 0 6.5
v -11.5 0 5.5
v -10.5 0 5.5
v -9.5 0 5.5
v -8.5 0 5.5
v 8.5 0 5.5
v 9.5 0 5.5
v 10.5 0 5.5
v 11.5 0 5.5
v -12.5 0 3.5
v -11.5 0 3.5
v -10.5 0 3.5
v -9.5 0 3.5
v 9.5 0 3.5
v 10.5 0 3.5
v 11.5 0 3.5
v 12.5 0 3.5
v -12.5 0 -3.5
v -11.5 0 -3.5
v -10.5 0 -3.5
v -9.5 0 -3.5
v 9.5 0 -3.5
v 10.5 0 -3.5
v 11.5 0 -3.5
v 12.5 0 -3.5
v -11.5 0 -5.5
v -10.5 0 -5.5
v -9.5 0 -5.5
v -8.5 0 -5.5
v 8.5 0 -5.5
v 9.5 0 -5.5
v 10.5 0 -5.5
v 11.5 0 -5.5
v -8.5 0 -6.5
v -7.5 0 -6.5
v 7.5 0 -6.5
v 8.5 0 -6.5
v -10.5 0 -7.5
v -9.5 0 -7.5
v -8.5 0 -7.5
v -7.5 0 -7.5
v -6.5 0 -7.5
v 6.5 0 -7.5
v 7.5 0 -7.5
v 8.5 0 -7.5
v 9.5 0 -7.5
v 10.5 0 -7.5
v -9.5 0 -8.5
v -8.5 0 -8.5
v -7.5 0 -8.5
v -6.5 0 -8.5
v -5.5 0 -8.5
v 5.5 0 -8.5
v 6.5 0 -8.5
v 7.5 0 -8.5
v 8.5 0 -8.5
v 9.5 0 -8.5
v -8.5 0 -9.5
v -7.5 0 -9.5
v -5.5 0 -9.5
v -3.5 0 -9.5
v 3.5 0 -9.5
v 5.5 0 -9.5
v 7.5 0 -9.5
v 8.5 0 -9.5
v -7.5 0 -10.5
v -5.5 0 -10.5
v -3.5 0 -10.5
v 3.5 0 -10.5
v 5.5 0 -10.5
v 7.5 0 -10.5
v -5.5 0 -11.5
v -3.5 0 -11.5
v 3.5 0 -11.5
v 5.5 0 -11.5
v -3.5 0 -12.5
v 3.5 0 -12.5
v -3.5 1 12.5
v 3.5 1 12.5
v -5.5 1 11.5
v -3.5 1 11.5
v 3.5 1 11.5
v 5.5 1 11.5
v -7.5 1 10.5
v -5.5 1 10.5
v -3.5 1 10.5
v 3.5 1 10.5
v 5.5 1 10.5
v 7.5 1 10.5
v -8.5 1 9.5
v -7.5 1 9.5
v -5.5 1 9.5
v -3.5 1 9.5
v 3.5 1 9.5
v 5.5 1 9.5
v 7.5 1 9.5
v 8.5 1 9.5
v -9.5 1 8.5
v -8.5 1 8.5
v -7.5 1 8.5
v -6.5 1 8.5
v -5.5 1 8.5
v 5.5 1 8.5
v 6.5 1 8.5
v 7.5 1 8.5
v 8.5 1 8.5
v 9.5 1 8.5
v -10.5 1 7.5
v -9.5 1 7.5
v -8.5 1 7.5
v -7.5 1 7.5
v -6.5 1 7.5
v 6.5 1 7.5
v 7.5 1 7.5
v 8.5 1 7.5
v 9.5 1 7.5
v 10.5 1 7.5
v -8.5 1 6.5
v -7.5 1 6.5
v 7.5 1 6.5
v 8.5 1 6.5
v -11.5 1 5.5
v -10.5 1 5.5
v -9.5 1 5.5
v -8.5 1 5.5
v 8.5 1 5.5
v 9.5 1 5.5
v 10.5 1 5.5
v 11.5 1 5.5
v -12.5 1 3.5
v -11.5 1 3.5
v -10.5 1 3.5
v -9.5 1 3.5
v 9.5 1 3.5
v 10.5 1 3.5
v 11.5 1 3.5
v 12.5 1 3.5
v -12.5 1 -3.5
v -11.5 1 -3.5
v -10.5 1 -3.5
v -9.5 1 -3.5
v 9.5 1 -3.5
v 10.5 1 -3.5
v 11.5 1 -3.5
v 12.5 1 -3.5
v -11.5 1 -5.5
v -10.5 1 -5.5
v -9.5 1 -5.5
v -8.5 1 -5.5
v 8.5 1 -5.5
v 9.5 1 -5.5
v 10.5 1 -5.5
v 11.5 1 -5.5
v -8.5 1 -6.5
v -7.5 1 -6.5
v 7.5 1 -6.5
v 8.5 1 -6.5
v -10.5 1 -7.5
v -9.5 1 -7.5
v -8.5 1 -7.5
v -7.5 1 -7.5
v -6.5 1 -7.5
v 6.5 1 -7.5
v 7.5 1 -7.5
v 8.5 1 -7.5
v 9.5 1 -7.5
v 10.5 1 -7.5
v -9.5 1 -8.5
v -8.5 1 -8.5
v -7.5 1 -8.5
v -6.5 1 -8.5
v -5.5 1 -8.5
v 5.5 1 -8.5
v 6.5 1 -8.5
v 7.5 1 -8.5
v 8.5 1 -8.5
v 9.5 1 -8.5
v -8.5 1 -9.5
v -7.5 1 -9.5
v -5.5 1 -9.5
v -3.5 1 -9.5
v 3.5 1 -9.5
v 5.5 1 -9.5
v 7.5 1 -9.5
v 8.5 1 -9.5
v -7.5 1 -10.5
v -5.5 1 -10.5
v -3.5 1 -10.5
v 3.5 1 -10.5
v 5.5 1 -10.5
v 7.5 1 -10.5
v -5.5 1 -11.5
v -3.5 1 -11.5
v 3.5 1 -11.5
v 5.5 1 -11.5
v -3.5 1 -12.5
v 3.5 1 -12.5

# faces
f 3/1/1 2/1/1 1/1/1
f 4/1/1 2/1/1 3/1/1
f 9/1/1 6/1/1 5/1/1
f 10/1/1 6/1/1 9/1/1
f 11/1/1 8/1/1 7/1/1
f 12/1/1 8/1/1 11/1/1
f 17/1/1 14/1/1 13/1/1
f 18/1/1 14/1/1 17/1/1
f 19/1/1 16/1/1 15/1/1
f 20/1/1 16/1/1 19/1/1
f 25/1/1 22/1/1 21/1/1
f 26/1/1 22/1/1 25/1/1
f 27/1/1 24/1/1 23/1/1
f 28/1/1 24/1/1 27/1/1
f 33/1/1 30/1/1 29/1/1
f 34/1/1 30/1/1 33/1/1
f 35/1/1 32/1/1 31/1/1
f 36/1/1 32/1/1 35/1/1
f 41/1/1 38/1/1 37/1/1
f 42/1/1 38/1/1 41/1/1
f 43/1/1 40/1/1 39/1/1
f 44/1/1 40/1/1 43/1/1
f 49/1/1 46/1/1 45/1/1
f 50/1/1 46/1/1 49/1/1
f 51/1/1 48/1/1 47/1/1
f 52/1/1 48/1/1 51/1/1
f 57/1/1 54/1/1 53/1/1
f 58/1/1 54/1/1 57/1/1
f 59/1/1 56/1/1 55/1/1
f 60/1/1 56/1/1 59/1/1
f 61/1/2 62/1/2 65/1/2
f 65/1/2 62/1/2 66/1/2
f 63/1/2 64/1/2 67/1/2
f 67/1/2 64/1/2 68/1/2
f 69/1/2 70/1/2 73/1/2
f 73/1/2 70/1/2 74/1/2
f 71/1/2 72/1/2 75/1/2
f 75/1/2 72/1/2 76/1/2
f 77/1/2 78/1/2 81/1/2
f 81/1/2 78/1/2 82/1/2
f 79/1/2 80/1/2 83/1/2
f 83/1/2 80/1/2 84/1/2
f 85/1/2 86/1/2 89/1/2
f 89/1/2 86/1/2 90/1/2
f 87/1/2 88/1/2 91/1/2
f 91/1/2 88/1/2 92/1/2
f 93/1/2 94/1/2 97/1/2
f 97/1/2 94/1/2 98/1/2
f 95/1/2 96/1/2 99/1/2
f 99/1/2 96/1/2 100/1/2
f 101/1/2 102/1/2 105/1/2
f 105/1/2 102/1/2 106/1/2
f 103/1/2 104/1/2 107/1/2
f 107/1/2 104/1/2 108/1/2
f 109/1/2 110/1/2 113/1/2
f 113/1/2 110/1/2 114/1/2
f 111/1/2 112/1/2 115/1/2
f 115/1/2 112/1/2 116/1/2
f 117/1/2 118/1/2 119/1/2
f 119/1/2 118/1/2 120/1/2
f 123/1/3 122/1/3 121/1/3
f 124/1/3 122/1/3 123/1/3
f 127/1/3 126/1/3 125/1/3
f 128/1/3 126/1/3 127/1/3
f 131/1/3 130/1/3 129/1/3
f 132/1/3 130/1/3 131/1/3
f 135/1/3 134/1/3 133/1/3
f 136/1/3 134/1/3 135/1/3
f 139/1/3 138/1/3 137/1/3
f 140/1/3 138/1/3 139/1/3
f 143/1/3 142/1/3 141/1/3
f 144/1/3 142/1/3 143/1/3
f 147/1/3 146/1/3 145/1/3
f 148/1/3 146/1/3 147/1/3
f 151/1/3 150/1/3 149/1/3
f 152/1/3 150/1/3 151/1/3
f 155/1/3 154/1/3 153/1/3
f 156/1/3 154/1/3 155/1/3
f 159/1/3 158/1/3 157/1/3
f 160/1/3 158/1/3 159/1/3
f 163/1/3 162/1/3 161/1/3
f 164/1/3 162/1/3 163/1/3
f 167/1/3 166/1/3 165/1/3
f 168/1/3 166/1/3 167/1/3
f 171/1/3 170/1/3 169/1/3
f 172/1/3 170/1/3 171/1/3
f 175/1/3 174/1/3 173/1/3
f 176/1/3 174/1/3 175/1/3
f 179/1/3 178/1/3 177/1/3
f 180/1/3 178/1/3 179/1/3
f 181/1/4 182/1/4 183/1/4
f 183/1/4 182/1/4 184/1/4
f 185/1/4 186/1/4 187/1/4
f 187/1/4 186/1/4 188/1/4
f 189/1/4 190/1/4 191/1/4
f 191/1/4 190/1/4 192/1/4
f 193/1/4 194/1/4 195/1/4
f 195/1/4 194/1/4 196/1/4
f 197/1/4 198/1/4 199/1/4
f 199/1/4 198/1/4 200/1/4
f 201/1/4 202/1/4 203/1/4
f 203/1/4 202/1/4 204/1/4
f 205/1/4 206/1/4 207/1/4
f 207/1/4 206/1/4 208/1/4
f 209/1/4 210/1/4 211/1/4
f 211/1/4 210/1/4 212/1/4
f 213/1/4 214/1/4 215/1/4
f 215/1/4 214/1/4 216/1/4
f 217/1/4 218/1/4 219/1/4
f 219/1/4 218/1/4 220/1/4
f 221/1/4 222/1/4 223/1/4
f 223/1/4 222/1/4 224/1/4
f 225/1/4 226/1/4 227/1/4
f 227/1/4 226/1/4 228/1/4
f 229/1/4 230/1/4 231/1/4
f 231/1/4 230/1/4 232/1/4
f 233/1/4 234/1/4 235/1/4
f 235/1/4 234/1/4 236/1/4
f 237/1/4 238/1/4 239/1/4
f 239/1/4 238/1/4 240/1/4
f 244/1/5 242/1/5 241/1/5
f 245/1/5 242/1/5 244/1/5
f 248/1/5 244/1/5 243/1/5
f 249/2/5 245/2/5 244/2/5
f 249/1/5 244/1/5 248/1/5
f 250/1/5 246/1/5 245/1/5
f 250/2/5 245/2/5 249/2/5
f 251/1/5 246/1/5 250/1/5
f 254/1/5 248/1/5 247/1/5
f 255/2/5 249/2/5 248/2/5
f 255/1/5 248/1/5 254/1/5
f 256/1/5 250/1/5 249/1/5
f 256/2/5 249/2/5 255/2/5
f 257/2/5 251/2/5 250/2/5
f 257/1/5 250/1/5 256/1/5
f 258/1/5 252/1/5 251/1/5
f 258/2/5 251/2/5 257/2/5
f 259/1/5 252/1/5 258/1/5
f 262/1/5 254/1/5 253/1/5
f 263/2/5 255/2/5 254/2/5
f 263/1/5 254/1/5 262/1/5
f 264/2/5 255/2/5 263/2/5
f 265/1/5 257/1/5 256/1/5
f 265/2/5 255/2/5 264/2/5
f 265/1/5 256/1/5 255/1/5
f 265/1/5 258/1/5 257/1/5
f 266/2/5 259/2/5 258/2/5
f 266/1/5 258/1/5 265/1/5
f 267/2/5 259/2/5 266/2/5
f 268/1/5 260/1/5 259/1/5
f 268/2/5 259/2/5 267/2/5
f 269/1/5 260/1/5 268/1/5
f 272/1/5 262/1/5 261/1/5
f 273/2/5 264/2/5 263/2/5
f 273/2/5 263/2/5 262/2/5
f 273/1/5 262/1/5 272/1/5
f 274/2/5 264/2/5 273/2/5
f 275/1/5 267/1/5 266/1/5
f 275/2/5 264/2/5 274/2/5
f 275/1/5 265/1/5 264/1/5
f 275/1/5 266/1/5 265/1/5
f 276/2/5 269/2/5 268/2/5
f 276/1/5 267/1/5 275/1/5
f 276/2/5 268/2/5 267/2/5
f 277/2/5 269/2/5 276/2/5
f 278/1/5 270/1/5 269/1/5
f 278/2/5 269/2/5 277/2/5
f 279/1/5 270/1/5 278/1/5
f 281/2/5 274/2/5 273/2/5
f 281/2/5 273/2/5 272/2/5
f 282/1/5 277/1/5 276/1/5
f 282/2/5 274/2/5 281/2/5
f 282/1/5 275/1/5 274/1/5
f 282/1/5 276/1/5 275/1/5
f 283/2/5 279/2/5 278/2/5
f 283/1/5 277/1/5 282/1/5
f 283/2/5 278/2/5 277/2/5
f 284/2/5 279/2/5 283/2/5
f 286/1/5 272/1/5 271/1/5
f 287/2/5 281/2/5 272/2/5
f 287/1/5 272/1/5 286/1/5
f 288/1/5 282/1/5 281/1/5
f 288/2/5 281/2/5 287/2/5
f 288/1/5 283/1/5 282/1/5
f 288/1/5 284/1/5 283/1/5
f 289/2/5 279/2/5 284/2/5
f 289/1/5 284/1/5 288/1/5
f 290/1/5 280/1/5 279/1/5
f 290/2/5 279/2/5 289/2/5
f 291/1/5 280/1/5 290/1/5
f 294/1/5 286/1/5 285/1/5
f 295/2/5 287/2/5 286/2/5
f 295/1/5 286/1/5 294/1/5
f 296/1/5 289/1/5 288/1/5
f 296/2/5 287/2/5 295/2/5
f 296/1/5 288/1/5 287/1/5
f 296/1/5 290/1/5 289/1/5
f 297/2/5 291/2/5 290/2/5
f 297/1/5 290/1/5 296/1/5
f 298/1/5 292/1/5 291/1/5
f 298/2/5 291/2/5 297/2/5
f 299/1/5 292/1/5 298/1/5
f 301/1/5 294/1/5 293/1/5
f 302/2/5 295/2/5 294/2/5
f 302/1/5 294/1/5 301/1/5
f 303/1/5 297/1/5 296/1/5
f 303/2/5 295/2/5 302/2/5
f 303/1/5 296/1/5 295/1/5
f 303/1/5 298/1/5 297/1/5
f 304/1/5 298/1/5 303/1/5
f 305/1/5 298/1/5 304/1/5
f 306/2/5 299/2/5 298/2/5
f 306/1/5 298/1/5 305/1/5
f 307/1/5 300/1/5 299/1/5
f 307/2/5 299/2/5 306/2/5
f 308/1/5 300/1/5 307/1/5
f 309/1/5 303/1/5 302/1/5
f 310/2/5 304/2/5 303/2/5
f 310/1/5 303/1/5 309/1/5
f 311/1/5 305/1/5 304/1/5
f 311/2/5 304/2/5 310/2/5
f 312/1/5 305/1/5 311/1/5
f 313/1/5 305/1/5 312/1/5
f 314/2/5 306/2/5 305/2/5
f 314/1/5 305/1/5 313/1/5
f 315/1/5 307/1/5 306/1/5
f 315/2/5 306/2/5 314/2/5
f 316/1/5 307/1/5 315/1/5
f 317/1/5 313/1/5 312/1/5
f 317/2/5 312/2/5 311/2/5
f 318/1/5 313/1/5 317/1/5
f 319/1/5 313/1/5 318/1/5
f 320/2/5 314/2/5 313/2/5
f 320/1/5 313/1/5 319/1/5
f 321/1/5 311/1/5 310/1/5
f 322/2/5 317/2/5 311/2/5
f 322/1/5 311/1/5 321/1/5
f 322/2/5 318/2/5 317/2/5
f 323/2/5 318/2/5 322/2/5
f 324/1/5 319/1/5 318/1/5
f 324/2/5 318/2/5 323/2/5
f 325/1/5 319/1/5 324/1/5
f 326/1/5 319/1/5 325/1/5
f 327/2/5 320/2/5 319/2/5
f 327/1/5 319/1/5 326/1/5
f 328/2/5 314/2/5 320/2/5
f 328/2/5 320/2/5 327/2/5
f 329/1/5 315/1/5 314/1/5
f 329/2/5 314/2/5 328/2/5
f 330/1/5 315/1/5 329/1/5
f 331/1/5 323/1/5 322/1/5
f 332/2/5 324/2/5 323/2/5
f 332/1/5 323/1/5 331/1/5
f 332/2/5 325/2/5 324/2/5
f 333/2/5 325/2/5 332/2/5
f 334/1/5 326/1/5 325/1/5
f 334/2/5 325/2/5 333/2/5
f 335/1/5 326/1/5 334/1/5
f 336/1/5 326/1/5 335/1/5
f 337/2/5 328/2/5 327/2/5
f 337/1/5 326/1/5 336/1/5
f 337/2/5 327/2/5 326/2/5
f 338/2/5 328/2/5 337/2/5
f 339/1/5 329/1/5 328/1/5
f 339/2/5 328/2/5 338/2/5
f 340/1/5 329/1/5 339/1/5
f 341/1/5 333/1/5 332/1/5
f 342/2/5 335/2/5 334/2/5
f 342/1/5 333/1/5 341/1/5
f 342/2/5 334/2/5 333/2/5
f 343/1/5 336/1/5 335/1/5
f 343/2/5 335/2/5 342/2/5
f 344/1/5 336/1/5 343/1/5
f 345/1/5 336/1/5 344/1/5
f 346/2/5 338/2/5 337/2/5
f 346/1/5 336/1/5 345/1/5
f 346/2/5 337/2/5 336/2/5
f 347/1/5 339/1/5 338/1/5
f 347/2/5 338/2/5 346/2/5
f 348/1/5 339/1/5 347/1/5
f 349/1/5 343/1/5 342/1/5
f 350/2/5 344/2/5 343/2/5
f 350/1/5 343/1/5 349/1/5
f 351/1/5 345/1/5 344/1/5
f 351/2/5 344/2/5 350/2/5
f 352/2/5 346/2/5 345/2/5
f 352/1/5 345/1/5 351/1/5
f 353/1/5 347/1/5 346/1/5
f 353/2/5 346/2/5 352/2/5
f 354/1/5 347/1/5 353/1/5
f 355/1/5 351/1/5 350/1/5
f 356/2/5 352/2/5 351/2/5
f 356/1/5 351/1/5 355/1/5
f 357/1/5 353/1/5 352/1/5
f 357/2/5 352/2/5 356/2/5
f 358/1/5 353/1/5 357/1/5
f 359/1/5 357/1/5 356/1/5
f 360/1/5 357/1/5 359/1/5
f 361/1/6 362/1/6 364/1/6
f 364/1/6 362/1/6 365/1/6
f 363/1/6 364/1/6 368/1/6
f 364/2/6 365/2/6 369/2/6
f 368/1/6 364/1/6 369/1/6
f 365/1/6 366/1/6 370/1/6
f 369/2/6 365/2/6 370/2/6
f 370/1/6 366/1/6 371/1/6
f 367/1/6 368/1/6 374/1/6
f 368/2/6 369/2/6 375/2/6
f 374/1/6 368/1/6 375/1/6
f 369/1/6 370/1/6 376/1/6
f 375/2/6 369/2/6 376/2/6
f 370/2/6 371/2/6 377/2/6
f 376/1/6 370/1/6 377/1/6
f 371/1/6 372/1/6 378/1/6
f 377/2/6 371/2/6 378/2/6
f 378/1/6 372/1/6 379/1/6
f 373/1/6 374/1/6 382/1/6
f 374/2/6 375/2/6 383/2/6
f 382/1/6 374/1/6 383/1/6
f 383/2/6 375/2/6 384/2/6
f 376/1/6 377/1/6 385/1/6
f 384/2/6 375/2/6 385/2/6
f 375/1/6 376/1/6 385/1/6
f 377/1/6 378/1/6 385/1/6
f 378/2/6 379/2/6 386/2/6
f 385/1/6 378/1/6 386/1/6
f 386/2/6 379/2/6 387/2/6
f 379/1/6 380/1/6 388/1/6
f 387/2/6 379/2/6 388/2/6
f 388/1/6 380/1/6 389/1/6
f 381/1/6 382/1/6 392/1/6
f 383/2/6 384/2/6 393/2/6
f 382/2/6 383/2/6 393/2/6
f 392/1/6 382/1/6 393/1/6
f 393/2/6 384/2/6 394/2/6
f 386/1/6 387/1/6 395/1/6
f 394/2/6 384/2/6 395/2/6
f 384/1/6 385/1/6 395/1/6
f 385/1/6 386/1/6 395/1/6
f 388/2/6 389/2/6 396/2/6
f 395/1/6 387/1/6 396/1/6
f 387/2/6 388/2/6 396/2/6
f 396/2/6 389/2/6 397/2/6
f 389/1/6 390/1/6 398/1/6
f 397/2/6 389/2/6 398/2/6
f 398/1/6 390/1/6 399/1/6
f 393/2/6 394/2/6 401/2/6
f 392/2/6 393/2/6 401/2/6
f 396/1/6 397/1/6 402/1/6
f 401/2/6 394/2/6 402/2/6
f 394/1/6 395/1/6 402/1/6
f 395/1/6 396/1/6 402/1/6
f 398/2/6 399/2/6 403/2/6
f 402/1/6 397/1/6 403/1/6
f 397/2/6 398/2/6 403/2/6
f 403/2/6 399/2/6 404/2/6
f 391/1/6 392/1/6 406/1/6
f 392/2/6 401/2/6 407/2/6
f 406/1/6 392/1/6 407/1/6
f 401/1/6 402/1/6 408/1/6
f 407/2/6 401/2/6 408/2/6
f 402/1/6 403/1/6 408/1/6
f 403/1/6 404/1/6 408/1/6
f 404/2/6 399/2/6 409/2/6
f 408/1/6 404/1/6 409/1/6
f 399/1/6 400/1/6 410/1/6
f 409/2/6 399/2/6 410/2/6
f 410/1/6 400/1/6 411/1/6
f 405/1/6 406/1/6 414/1/6
f 406/2/6 407/2/6 415/2/6
f 414/1/6 406/1/6 415/1/6
f 408/1/6 409/1/6 416/1/6
f 415/2/6 407/2/6 416/2/6
f 407/1/6 408/1/6 416/1/6
f 409/1/6 410/1/6 416/1/6
f 410/2/6 411/2/6 417/2/6
f 416/1/6 410/1/6 417/1/6
f 411/1/6 412/1/6 418/1/6
f 417/2/6 411/2/6 418/2/6
f 418/1/6 412/1/6 419/1/6
f 413/1/6 414/1/6 421/1/6
f 414/2/6 415/2/6 422/2/6
f 421/1/6 414/1/6 422/1/6
f 416/1/6 417/1/6 423/1/6
f 422/2/6 415/2/6 423/2/6
f 415/1/6 416/1/6 423/1/6
f 417/1/6 418/1/6 423/1/6
f 423/1/6 418/1/6 424/1/6
f 424/1/6 418/1/6 425/1/6
f 418/2/6 419/2/6 426/2/6
f 425/1/6 418/1/6 426/1/6
f 419/1/6 420/1/6 427/1/6
f 426/2/6 419/2/6 427/2/6
f 427/1/6 420/1/6 428/1/6
f 422/1/6 423/1/6 429/1/6
f 423/2/6 424/2/6 430/2/6
f 429/1/6 423/1/6 430/1/6
f 424/1/6 425/1/6 431/1/6
f 430/2/6 424/2/6 431/2/6
f 431/1/6 425/1/6 432/1/6
f 432/1/6 425/1/6 433/1/6
f 425/2/6 426/2/6 434/2/6
f 433/1/6 425/1/6 434/1/6
f 426/1/6 427/1/6 435/1/6
f 434/2/6 426/2/6 435/2/6
f 435/1/6 427/1/6 436/1/6
f 432/1/6 433/1/6 437/1/6
f 431/2/6 432/2/6 437/2/6
f 437/1/6 433/1/6 438/1/6
f 438/1/6 433/1/6 439/1/6
f 433/2/6 434/2/6 440/2/6
f 439/1/6 433/1/6 440/1/6
f 430/1/6 431/1/6 441/1/6
f 431/2/6 437/2/6 442/2/6
f 441/1/6 431/1/6 442/1/6
f 437/2/6 438/2/6 442/2/6
f 442/2/6 438/2/6 443/2/6
f 438/1/6 439/1/6 444/1/6
f 443/2/6 438/2/6 444/2/6
f 444/1/6 439/1/6 445/1/6
f 445/1/6 439/1/6 446/1/6
f 439/2/6 440/2/6 447/2/6
f 446/1/6 439/1/6 447/1/6
f 440/2/6 434/2/6 448/2/6
f 447/2/6 440/2/6 448/2/6
f 434/1/6 435/1/6 449/1/6
f 448/2/6 434/2/6 449/2/6
f 449/1/6 435/1/6 450/1/6
f 442/1/6 443/1/6 451/1/6
f 443/2/6 444/2/6 452/2/6
f 451/1/6 443/1/6 452/1/6
f 444/2/6 445/2/6 452/2/6
f 452/2/6 445/2/6 453/2/6
f 445/1/6 446/1/6 454/1/6
f 453/2/6 445/2/6 454/2/6
f 454/1/6 446/1/6 455/1/6
f 455/1/6 446/1/6 456/1/6
f 447/2/6 448/2/6 457/2/6
f 456/1/6 446/1/6 457/1/6
f 446/2/6 447/2/6 457/2/6
f 457/2/6 448/2/6 458/2/6
f 448/1/6 449/1/6 459/1/6
f 458/2/6 448/2/6 459/2/6
f 459/1/6 449/1/6 460/1/6
f 452/1/6 453/1/6 461/1/6
f 454/2/6 455/2/6 462/2/6
f 461/1/6 453/1/6 462/1/6
f 453/2/6 454/2/6 462/2/6
f 455/1/6 456/1/6 463/1/6
f 462/2/6 455/2/6 463/2/6
f 463/1/6 456/1/6 464/1/6
f 464/1/6 456/1/6 465/1/6
f 457/2/6 458/2/6 466/2/6
f 465/1/6 456/1/6 466/1/6
f 456/2/6 457/2/6 466/2/6
f 458/1/6 459/1/6 467/1/6
f 466/2/6 458/2/6 467/2/6
f 467/1/6 459/1/6 468/1/6
f 462/1/6 463/1/6 469/1/6
f 463/2/6 464/2/6 470/2/6
f 469/1/6 463/1/6 470/1/6
f 464/1/6 465/1/6 471/1/6
f 470/2/6 464/2/6 471/2/6
f 465/2/6 466/2/6 472/2/6
f 471/1/6 465/1/6 472/1/6
f 466/1/6 467/1/6 473/1/6
f 472/2/6 466/2/6 473/2/6
f 473/1/6 467/1/6 474/1/6
f 470/1/6 471/1/6 475/1/6
f 471/2/6 472/2/6 476/2/6
f 475/1/6 471/1/6 476/1/6
f 472/1/6 473/1/6 477/1/6
f 476/2/6 472/2/6 477/2/6
f 477/1/6 473/1/6 478/1/6
f 476/1/6 477/1/6 479/1/6
f 479/1/6 477/1/6 480/1/6
