# MagicaVoxel @ Ephtracy

# group
g double bed light blue

# material
mtllib double bed light blue.mtl
usemtl palette

# normals
vn -1 0 0
vn 1 0 0
vn 0 0 1
vn 0 0 -1
vn 0 -1 0
vn 0 1 0

# texcoords
vt 0.369141 0.5
vt 0.857422 0.5
vt 0.962891 0.5
vt 0.966797 0.5

# verts
v -15 8 10
v -15 8 7
v -15 9 7
v -15 9 6
v -15 14 10
v -15 14 6
v -14 0 18
v -14 0 14
v -14 0 -14
v -14 0 -18
v -14 4 14
v -14 4 -14
v -14 8 18
v -14 8 10
v -14 8 7
v -14 8 -18
v -14 9 7
v -14 9 6
v -14 11 18
v -14 11 17
v -14 12 17
v -14 12 10
v -14 12 -17
v -14 12 -18
v -14 13 6
v -14 13 -17
v -13 11 18
v -13 11 17
v -13 12 18
v -13 12 17
v -13 12 -17
v -13 12 -18
v -13 13 -17
v -13 13 -18
v 10 0 18
v 10 0 15
v 10 0 -15
v 10 0 -18
v 10 1 15
v 10 1 14
v 10 1 -14
v 10 1 -15
v 10 4 18
v 10 4 14
v 10 4 -14
v 10 4 -18
v 11 0 15
v 11 0 14
v 11 0 -14
v 11 0 -15
v 11 1 15
v 11 1 14
v 11 1 -14
v 11 1 -15
v -11 0 15
v -11 0 14
v -11 0 -14
v -11 0 -15
v -11 1 15
v -11 1 14
v -11 1 -14
v -11 1 -15
v -10 0 18
v -10 0 15
v -10 0 -15
v -10 0 -18
v -10 1 15
v -10 1 14
v -10 1 -14
v -10 1 -15
v -10 4 18
v -10 4 14
v -10 4 -14
v -10 4 -18
v 13 11 18
v 13 11 17
v 13 12 18
v 13 12 17
v 13 12 -17
v 13 12 -18
v 13 13 -17
v 13 13 -18
v 14 0 18
v 14 0 14
v 14 0 -14
v 14 0 -18
v 14 4 14
v 14 4 -14
v 14 8 18
v 14 8 10
v 14 8 7
v 14 8 -18
v 14 9 7
v 14 9 6
v 14 11 18
v 14 11 17
v 14 12 17
v 14 12 10
v 14 12 -17
v 14 12 -18
v 14 13 6
v 14 13 -17
v 15 8 10
v 15 8 7
v 15 9 7
v 15 9 6
v 15 14 10
v 15 14 6
v -14 0 18
v -14 8 18
v -14 11 18
v -13 11 18
v -13 12 18
v -10 0 18
v -10 4 18
v 10 0 18
v 10 4 18
v 13 11 18
v 13 12 18
v 14 0 18
v 14 8 18
v 14 11 18
v -14 11 17
v -14 12 17
v -13 11 17
v -13 12 17
v 13 11 17
v 13 12 17
v 14 11 17
v 14 12 17
v -15 8 10
v -15 14 10
v -14 8 10
v -14 12 10
v 14 8 10
v 14 12 10
v 15 8 10
v 15 14 10
v -14 0 -14
v -14 4 -14
v -11 0 -14
v -11 1 -14
v -10 1 -14
v -10 4 -14
v 10 1 -14
v 10 4 -14
v 11 0 -14
v 11 1 -14
v 14 0 -14
v 14 4 -14
v -11 0 -15
v -11 1 -15
v -10 0 -15
v -10 1 -15
v 10 0 -15
v 10 1 -15
v 11 0 -15
v 11 1 -15
v -11 0 15
v -11 1 15
v -10 0 15
v -10 1 15
v 10 0 15
v 10 1 15
v 11 0 15
v 11 1 15
v -14 0 14
v -14 4 14
v -11 0 14
v -11 1 14
v -10 1 14
v -10 4 14
v 10 1 14
v 10 4 14
v 11 0 14
v 11 1 14
v 14 0 14
v 14 4 14
v -15 8 7
v -15 9 7
v -14 8 7
v -14 9 7
v 14 8 7
v 14 9 7
v 15 8 7
v 15 9 7
v -15 9 6
v -15 14 6
v -14 9 6
v -14 13 6
v 14 9 6
v 14 13 6
v 15 9 6
v 15 14 6
v -14 12 -17
v -14 13 -17
v -13 12 -17
v -13 13 -17
v 13 12 -17
v 13 13 -17
v 14 12 -17
v 14 13 -17
v -14 0 -18
v -14 8 -18
v -14 12 -18
v -13 12 -18
v -13 13 -18
v -10 0 -18
v -10 4 -18
v 10 0 -18
v 10 4 -18
v 13 12 -18
v 13 13 -18
v 14 0 -18
v 14 8 -18
v 14 12 -18
v -14 0 18
v -10 0 18
v 10 0 18
v 14 0 18
v -11 0 15
v -10 0 15
v 10 0 15
v 11 0 15
v -14 0 14
v -11 0 14
v 11 0 14
v 14 0 14
v -14 0 -14
v -11 0 -14
v 11 0 -14
v 14 0 -14
v -11 0 -15
v -10 0 -15
v 10 0 -15
v 11 0 -15
v -14 0 -18
v -10 0 -18
v 10 0 -18
v 14 0 -18
v -11 1 15
v -10 1 15
v 10 1 15
v 11 1 15
v -11 1 14
v -10 1 14
v 10 1 14
v 11 1 14
v -11 1 -14
v -10 1 -14
v 10 1 -14
v 11 1 -14
v -11 1 -15
v -10 1 -15
v 10 1 -15
v 11 1 -15
v -10 4 18
v 10 4 18
v -14 4 14
v -10 4 14
v 10 4 14
v 14 4 14
v -14 4 -14
v -10 4 -14
v 10 4 -14
v 14 4 -14
v -10 4 -18
v 10 4 -18
v -15 8 10
v -14 8 10
v 14 8 10
v 15 8 10
v -15 8 7
v -14 8 7
v 14 8 7
v 15 8 7
v -15 9 7
v -14 9 7
v 14 9 7
v 15 9 7
v -15 9 6
v -14 9 6
v 14 9 6
v 15 9 6
v -14 11 18
v -13 11 18
v 13 11 18
v 14 11 18
v -14 11 17
v -13 11 17
v 13 11 17
v 14 11 17
v -13 12 18
v 13 12 18
v -14 12 17
v -13 12 17
v 13 12 17
v 14 12 17
v -14 12 10
v 14 12 10
v -14 12 -17
v -13 12 -17
v 13 12 -17
v 14 12 -17
v -14 12 -18
v -13 12 -18
v 13 12 -18
v 14 12 -18
v -14 13 6
v 14 13 6
v -14 13 -17
v -13 13 -17
v 13 13 -17
v 14 13 -17
v -13 13 -18
v 13 13 -18
v -15 14 10
v 15 14 10
v -15 14 6
v 15 14 6

# faces
f 3/4/1 2/4/1 1/4/1
f 5/4/1 3/4/1 1/4/1
f 5/4/1 4/4/1 3/4/1
f 6/4/1 4/4/1 5/4/1
f 11/1/1 8/1/1 7/1/1
f 12/1/1 10/1/1 9/1/1
f 13/1/1 11/1/1 7/1/1
f 13/1/1 12/1/1 11/1/1
f 14/1/1 12/1/1 13/1/1
f 15/1/1 12/1/1 14/1/1
f 16/1/1 10/1/1 12/1/1
f 16/1/1 12/1/1 15/1/1
f 17/2/1 16/2/1 15/2/1
f 18/2/1 16/2/1 17/2/1
f 19/3/1 14/3/1 13/3/1
f 20/3/1 14/3/1 19/3/1
f 21/3/1 14/3/1 20/3/1
f 22/3/1 14/3/1 21/3/1
f 23/2/1 16/2/1 18/2/1
f 24/2/1 16/2/1 23/2/1
f 25/2/1 23/2/1 18/2/1
f 26/2/1 23/2/1 25/2/1
f 29/3/1 28/3/1 27/3/1
f 30/3/1 28/3/1 29/3/1
f 33/2/1 32/2/1 31/2/1
f 34/2/1 32/2/1 33/2/1
f 39/1/1 36/1/1 35/1/1
f 42/1/1 38/1/1 37/1/1
f 43/1/1 40/1/1 39/1/1
f 43/1/1 39/1/1 35/1/1
f 44/1/1 40/1/1 43/1/1
f 45/1/1 42/1/1 41/1/1
f 46/1/1 38/1/1 42/1/1
f 46/1/1 42/1/1 45/1/1
f 51/1/1 48/1/1 47/1/1
f 52/1/1 48/1/1 51/1/1
f 53/1/1 50/1/1 49/1/1
f 54/1/1 50/1/1 53/1/1
f 55/1/2 56/1/2 59/1/2
f 59/1/2 56/1/2 60/1/2
f 57/1/2 58/1/2 61/1/2
f 61/1/2 58/1/2 62/1/2
f 63/1/2 64/1/2 67/1/2
f 65/1/2 66/1/2 70/1/2
f 67/1/2 68/1/2 71/1/2
f 63/1/2 67/1/2 71/1/2
f 71/1/2 68/1/2 72/1/2
f 69/1/2 70/1/2 73/1/2
f 70/1/2 66/1/2 74/1/2
f 73/1/2 70/1/2 74/1/2
f 75/3/2 76/3/2 77/3/2
f 77/3/2 76/3/2 78/3/2
f 79/2/2 80/2/2 81/2/2
f 81/2/2 80/2/2 82/2/2
f 83/1/2 84/1/2 87/1/2
f 85/1/2 86/1/2 88/1/2
f 83/1/2 87/1/2 89/1/2
f 87/1/2 88/1/2 89/1/2
f 89/1/2 88/1/2 90/1/2
f 90/1/2 88/1/2 91/1/2
f 88/1/2 86/1/2 92/1/2
f 91/1/2 88/1/2 92/1/2
f 91/2/2 92/2/2 93/2/2
f 93/2/2 92/2/2 94/2/2
f 89/3/2 90/3/2 95/3/2
f 95/3/2 90/3/2 96/3/2
f 96/3/2 90/3/2 97/3/2
f 97/3/2 90/3/2 98/3/2
f 94/2/2 92/2/2 99/2/2
f 99/2/2 92/2/2 100/2/2
f 94/2/2 99/2/2 101/2/2
f 101/2/2 99/2/2 102/2/2
f 103/4/2 104/4/2 105/4/2
f 103/4/2 105/4/2 107/4/2
f 105/4/2 106/4/2 107/4/2
f 107/4/2 106/4/2 108/4/2
f 112/3/3 111/3/3 110/3/3
f 114/1/3 110/1/3 109/1/3
f 115/1/3 110/1/3 114/1/3
f 117/1/3 110/1/3 115/1/3
f 118/3/3 113/3/3 112/3/3
f 118/3/3 112/3/3 110/3/3
f 119/3/3 113/3/3 118/3/3
f 120/1/3 117/1/3 116/1/3
f 121/1/3 110/1/3 117/1/3
f 121/1/3 117/1/3 120/1/3
f 121/3/3 118/3/3 110/3/3
f 122/3/3 118/3/3 121/3/3
f 125/3/3 124/3/3 123/3/3
f 126/3/3 124/3/3 125/3/3
f 129/3/3 128/3/3 127/3/3
f 130/3/3 128/3/3 129/3/3
f 133/4/3 132/4/3 131/4/3
f 134/4/3 132/4/3 133/4/3
f 136/4/3 132/4/3 134/4/3
f 137/4/3 136/4/3 135/4/3
f 138/4/3 132/4/3 136/4/3
f 138/4/3 136/4/3 137/4/3
f 141/1/3 140/1/3 139/1/3
f 142/1/3 140/1/3 141/1/3
f 143/1/3 140/1/3 142/1/3
f 144/1/3 140/1/3 143/1/3
f 148/1/3 146/1/3 145/1/3
f 149/1/3 148/1/3 147/1/3
f 150/1/3 146/1/3 148/1/3
f 150/1/3 148/1/3 149/1/3
f 153/1/3 152/1/3 151/1/3
f 154/1/3 152/1/3 153/1/3
f 157/1/3 156/1/3 155/1/3
f 158/1/3 156/1/3 157/1/3
f 159/1/4 160/1/4 161/1/4
f 161/1/4 160/1/4 162/1/4
f 163/1/4 164/1/4 165/1/4
f 165/1/4 164/1/4 166/1/4
f 167/1/4 168/1/4 169/1/4
f 169/1/4 168/1/4 170/1/4
f 170/1/4 168/1/4 171/1/4
f 171/1/4 168/1/4 172/1/4
f 173/1/4 174/1/4 176/1/4
f 175/1/4 176/1/4 177/1/4
f 176/1/4 174/1/4 178/1/4
f 177/1/4 176/1/4 178/1/4
f 179/4/4 180/4/4 181/4/4
f 181/4/4 180/4/4 182/4/4
f 183/4/4 184/4/4 185/4/4
f 185/4/4 184/4/4 186/4/4
f 187/4/4 188/4/4 189/4/4
f 189/4/4 188/4/4 190/4/4
f 190/4/4 188/4/4 192/4/4
f 191/4/4 192/4/4 193/4/4
f 192/4/4 188/4/4 194/4/4
f 193/4/4 192/4/4 194/4/4
f 195/2/4 196/2/4 197/2/4
f 197/2/4 196/2/4 198/2/4
f 199/2/4 200/2/4 201/2/4
f 201/2/4 200/2/4 202/2/4
f 204/2/4 205/2/4 206/2/4
f 203/1/4 204/1/4 208/1/4
f 208/1/4 204/1/4 209/1/4
f 209/1/4 204/1/4 211/1/4
f 206/2/4 207/2/4 212/2/4
f 204/2/4 206/2/4 212/2/4
f 212/2/4 207/2/4 213/2/4
f 210/1/4 211/1/4 214/1/4
f 211/1/4 204/1/4 215/1/4
f 214/1/4 211/1/4 215/1/4
f 204/2/4 212/2/4 215/2/4
f 215/2/4 212/2/4 216/2/4
f 221/1/5 218/1/5 217/1/5
f 222/1/5 218/1/5 221/1/5
f 223/1/5 220/1/5 219/1/5
f 224/1/5 220/1/5 223/1/5
f 225/1/5 221/1/5 217/1/5
f 226/1/5 221/1/5 225/1/5
f 227/1/5 220/1/5 224/1/5
f 228/1/5 220/1/5 227/1/5
f 233/1/5 230/1/5 229/1/5
f 236/1/5 232/1/5 231/1/5
f 237/1/5 234/1/5 233/1/5
f 237/1/5 233/1/5 229/1/5
f 238/1/5 234/1/5 237/1/5
f 239/1/5 236/1/5 235/1/5
f 240/1/5 232/1/5 236/1/5
f 240/1/5 236/1/5 239/1/5
f 245/1/5 242/1/5 241/1/5
f 246/1/5 242/1/5 245/1/5
f 247/1/5 244/1/5 243/1/5
f 248/1/5 244/1/5 247/1/5
f 253/1/5 250/1/5 249/1/5
f 254/1/5 250/1/5 253/1/5
f 255/1/5 252/1/5 251/1/5
f 256/1/5 252/1/5 255/1/5
f 260/1/5 258/1/5 257/1/5
f 261/1/5 258/1/5 260/1/5
f 263/1/5 260/1/5 259/1/5
f 263/1/5 262/1/5 261/1/5
f 263/1/5 261/1/5 260/1/5
f 264/1/5 262/1/5 263/1/5
f 265/1/5 262/1/5 264/1/5
f 266/1/5 262/1/5 265/1/5
f 267/1/5 265/1/5 264/1/5
f 268/1/5 265/1/5 267/1/5
f 273/4/5 270/4/5 269/4/5
f 274/4/5 270/4/5 273/4/5
f 275/4/5 272/4/5 271/4/5
f 276/4/5 272/4/5 275/4/5
f 281/4/5 278/4/5 277/4/5
f 282/4/5 278/4/5 281/4/5
f 283/4/5 280/4/5 279/4/5
f 284/4/5 280/4/5 283/4/5
f 285/3/6 286/3/6 289/3/6
f 289/3/6 286/3/6 290/3/6
f 287/3/6 288/3/6 291/3/6
f 291/3/6 288/3/6 292/3/6
f 293/3/6 294/3/6 296/3/6
f 296/3/6 294/3/6 297/3/6
f 295/3/6 296/3/6 299/3/6
f 297/3/6 298/3/6 299/3/6
f 296/3/6 297/3/6 299/3/6
f 299/3/6 298/3/6 300/3/6
f 301/2/6 302/2/6 305/2/6
f 305/2/6 302/2/6 306/2/6
f 303/2/6 304/2/6 307/2/6
f 307/2/6 304/2/6 308/2/6
f 309/2/6 310/2/6 311/2/6
f 311/2/6 310/2/6 312/2/6
f 312/2/6 310/2/6 313/2/6
f 313/2/6 310/2/6 314/2/6
f 312/2/6 313/2/6 315/2/6
f 315/2/6 313/2/6 316/2/6
f 317/4/6 318/4/6 319/4/6
f 319/4/6 318/4/6 320/4/6
